<?xml version="1.0" standalone="no"?>
<svg xmlns="http://www.w3.org/2000/svg" width="149.76" height="131.33137737961925" viewBox="0 0 149.76 131.33137737961925"><g fill="#ff8686" color="#ff8686" transform="translate(49.88 0) scale(0.9615385)"><svg width="52.0" height="52.0" x="0.0" y="0.0" viewBox="0 0 52 52"><path fill="currentColor" fill-rule="evenodd" d="M31.335 30.191v-4.42c2.267-.842 3.9-3.869 3.9-7.56 0-3.266-.426-6.345-1.206-8.685C32.843 5.95 31.2 5.2 30.035 5.2c-3.577 0-5.2 6.74-5.2 13 0 3.702 1.633 6.718 3.9 7.56v6.043A43.104 43.104 0 0 0 26 33.821a43.175 43.175 0 0 0-2.704-1.997 39.208 39.208 0 0 0-3.338-2.038v-4.077c1.788-.79 3.068-3.203 3.068-6.126 0-2.59-.344-5.044-.968-6.916-.988-2.964-2.392-3.577-3.4-3.577-1.01 0-2.413.624-3.401 3.577-.624 1.862-.967 4.316-.967 6.916 0 2.923 1.268 5.335 3.068 6.126v2.766A41.305 41.305 0 0 0 2.62 24.773c.291-5.793 2.693-11.201 6.822-15.33C13.873 5.033 19.75 2.6 26 2.6c6.25 0 12.126 2.434 16.546 6.854 4.13 4.128 6.532 9.536 6.823 15.33a41.456 41.456 0 0 0-18.034 5.407m-1.3-6.791c-1.227 0-2.6-2.226-2.6-5.2 0-2.985.385-5.782 1.071-7.862.697-2.101 1.415-2.538 1.53-2.538.114 0 .82.437 1.528 2.538.697 2.08 1.071 4.877 1.071 7.862 0 2.974-1.373 5.2-2.6 5.2m6.115 22.287a43.776 43.776 0 0 0-1.362-2.225 28.498 28.498 0 0 1 11.097-5.096 23.137 23.137 0 0 1-2.621 3.442 25.736 25.736 0 0 0-7.114 3.88M18.668 23.4c-.718 0-1.768-1.487-1.768-3.806 0-4.743 1.196-7.416 1.758-7.852.208.176.655.77 1.07 2.194.448 1.56.698 3.567.698 5.668 0 2.309-1.04 3.796-1.758 3.796m.77 12.116a36.326 36.326 0 0 0-16.495-5.502 24.536 24.536 0 0 1-.301-2.63 38.714 38.714 0 0 1 19.198 6.593A38.93 38.93 0 0 1 34.372 47.85c-.822.312-1.664.583-2.527.801a36.628 36.628 0 0 0-12.407-13.135m6.79 13.884a31.23 31.23 0 0 0-10.971-10.317 31.117 31.117 0 0 0-10.691-3.64 23.45 23.45 0 0 1-1.01-2.745 33.725 33.725 0 0 1 14.478 5.023A33.867 33.867 0 0 1 29.14 49.192c-.947.125-1.924.198-2.912.208m-7.52-1.154a26.187 26.187 0 0 0-7.55-5.44 28.536 28.536 0 0 0-2.402-.998 23.85 23.85 0 0 1-2.631-3.453 28.598 28.598 0 0 1 7.862 2.985 28.801 28.801 0 0 1 8.944 7.852c-1.446-.177-2.85-.5-4.222-.946m28.714-12.813A31.322 31.322 0 0 0 33.28 41.33a38.429 38.429 0 0 0-1.622-2.028 33.705 33.705 0 0 1 16.775-6.615c-.281.936-.614 1.851-1.009 2.746m1.633-5.419A36.478 36.478 0 0 0 29.9 37.367a52.264 52.264 0 0 0-1.882-1.83 38.83 38.83 0 0 1 21.34-8.154 24.235 24.235 0 0 1-.301 2.631m-4.67-22.401C39.478 2.704 32.947 0 26 0 19.053 0 12.522 2.704 7.613 7.613 2.704 12.522 0 19.053 0 26c0 6.947 2.704 13.478 7.613 18.387C12.522 49.296 19.053 52 26 52c6.947 0 13.478-2.704 18.387-7.613C49.296 39.478 52 32.947 52 26c0-6.947-2.704-13.478-7.613-18.387"></path></svg></g><path fill="#fe0b01" fill-rule="nonzero" d="M14.28 0Q20.40 0 23.96 3.06Q27.52 6.12 27.52 11.80L27.52 11.80L19.08 11.80Q19.08 9.40 17.82 8Q16.56 6.60 14.24 6.60L14.24 6.60Q11.56 6.60 10.30 8.28Q9.04 9.96 9.04 12.96L9.04 12.96L9.04 15.52Q9.04 18.48 10.30 20.18Q11.56 21.88 14.16 21.88L14.16 21.88Q16.72 21.88 18.04 20.56Q19.36 19.24 19.36 16.84L19.36 16.84L27.52 16.84Q27.52 22.48 24.06 25.48Q20.60 28.48 14.28 28.48L14.28 28.48Q7.24 28.48 3.62 24.88Q0 21.28 0 14.24L0 14.24Q0 7.20 3.62 3.60Q7.24 0 14.28 0L14.28 0ZM49.36 17.32L49.36 28L40.52 28L40.52 17.32L29.60 0.48L39.76 0.48L45.04 9.64L45.20 9.64L50.48 0.48L60.12 0.48L49.36 17.32ZM74.12 0Q80.24 0 83.80 3.06Q87.36 6.12 87.36 11.80L87.36 11.80L78.92 11.80Q78.92 9.40 77.66 8Q76.40 6.60 74.08 6.60L74.08 6.60Q71.40 6.60 70.14 8.28Q68.88 9.96 68.88 12.96L68.88 12.96L68.88 15.52Q68.88 18.48 70.14 20.18Q71.40 21.88 74 21.88L74 21.88Q76.56 21.88 77.88 20.56Q79.20 19.24 79.20 16.84L79.20 16.84L87.36 16.84Q87.36 22.48 83.90 25.48Q80.44 28.48 74.12 28.48L74.12 28.48Q67.08 28.48 63.46 24.88Q59.84 21.28 59.84 14.24L59.84 14.24Q59.84 7.20 63.46 3.60Q67.08 0 74.12 0L74.12 0ZM92.12 28L92.12 0.48L100.96 0.48L100.96 20.96L115.08 20.96L115.08 28L92.12 28ZM118.80 28L118.80 0.48L142.60 0.48L142.60 7.08L127.64 7.08L127.64 10.88L140.44 10.88L140.44 17.20L127.64 17.20L127.64 21.40L142.88 21.40L142.88 28L118.80 28Z" transform="translate(0 65) scale(1.049)"></path><path fill="#fe0b01" fill-rule="nonzero" d="M12.80 0Q18.08 0 21.48 2.14Q24.88 4.28 24.96 8.48L24.96 8.48L24.96 8.96L16.68 8.96L16.68 8.80Q16.68 7.60 15.80 6.80Q14.92 6 13.12 6L13.12 6Q11.36 6 10.42 6.52Q9.48 7.04 9.48 7.80L9.48 7.80Q9.48 8.88 10.76 9.40Q12.04 9.92 14.88 10.48L14.88 10.48Q18.20 11.16 20.34 11.90Q22.48 12.64 24.08 14.32Q25.68 16 25.72 18.88L25.72 18.88Q25.72 23.76 22.42 26.12Q19.12 28.48 13.60 28.48L13.60 28.48Q7.16 28.48 3.58 26.32Q0 24.16 0 18.68L0 18.68L8.36 18.68Q8.36 20.76 9.44 21.46Q10.52 22.16 12.80 22.16L12.80 22.16Q14.48 22.16 15.58 21.80Q16.68 21.44 16.68 20.32L16.68 20.32Q16.68 19.32 15.46 18.82Q14.24 18.32 11.48 17.76L11.48 17.76Q8.12 17.04 5.92 16.26Q3.72 15.48 2.08 13.68Q0.44 11.88 0.44 8.80L0.44 8.80Q0.44 4.28 3.94 2.14Q7.44 0 12.80 0L12.80 0ZM43.24 0Q49.36 0 52.92 3.06Q56.48 6.12 56.48 11.80L56.48 11.80L48.04 11.80Q48.04 9.40 46.78 8Q45.52 6.60 43.20 6.60L43.20 6.60Q40.52 6.60 39.26 8.28Q38 9.96 38 12.96L38 12.96L38 15.52Q38 18.48 39.26 20.18Q40.52 21.88 43.12 21.88L43.12 21.88Q45.68 21.88 47 20.56Q48.32 19.24 48.32 16.84L48.32 16.84L56.48 16.84Q56.48 22.48 53.02 25.48Q49.56 28.48 43.24 28.48L43.24 28.48Q36.20 28.48 32.58 24.88Q28.96 21.28 28.96 14.24L28.96 14.24Q28.96 7.20 32.58 3.60Q36.20 0 43.24 0L43.24 0ZM74.92 0Q82.04 0 85.92 3.64Q89.80 7.28 89.80 14.24L89.80 14.24Q89.80 21.20 85.92 24.84Q82.04 28.48 74.92 28.48L74.92 28.48Q67.80 28.48 63.94 24.86Q60.08 21.24 60.08 14.24L60.08 14.24Q60.08 7.24 63.94 3.62Q67.80 0 74.92 0L74.92 0ZM74.92 6.60Q72.08 6.60 70.60 8.32Q69.12 10.04 69.12 12.96L69.12 12.96L69.12 15.52Q69.12 18.44 70.60 20.16Q72.08 21.88 74.92 21.88L74.92 21.88Q77.76 21.88 79.26 20.16Q80.76 18.44 80.76 15.52L80.76 15.52L80.76 12.96Q80.76 10.04 79.26 8.32Q77.76 6.60 74.92 6.60L74.92 6.60ZM120.68 8.92Q120.68 11.44 119.32 13.48Q117.96 15.52 115.36 16.48L115.36 16.48L121.48 28L111.56 28L106.68 17.96L103.40 17.96L103.40 28L94.56 28L94.56 0.48L111.40 0.48Q114.36 0.48 116.46 1.62Q118.56 2.76 119.62 4.70Q120.68 6.64 120.68 8.92L120.68 8.92ZM111.68 9.28Q111.68 8.20 110.96 7.48Q110.24 6.76 109.20 6.76L109.20 6.76L103.40 6.76L103.40 11.84L109.20 11.84Q110.24 11.84 110.96 11.10Q111.68 10.36 111.68 9.28L111.68 9.28ZM125.68 28L125.68 0.48L149.48 0.48L149.48 7.08L134.52 7.08L134.52 10.88L147.32 10.88L147.32 17.20L134.52 17.20L134.52 21.40L149.76 21.40L149.76 28L125.68 28Z" transform="translate(0 102.852) scale(1)"></path></svg>