<?xml version="1.0" standalone="no"?>
<svg xmlns="http://www.w3.org/2000/svg" viewBox="0 0 120 68" width="120" height="68"><g fill="#ffbe48" color="#ffbe48" transform="translate(45.11 0) scale(0.5740741) "><svg width="51.0" height="54.0" x="0.0" y="0.0" viewBox="0 0 51 54"><path fill="currentColor" fill-rule="evenodd" d="M28.58 14.169c5.536 1.088 7.414 1.494 7.385 1.577-.028.065 1.047 3.32 2.396 7.241 1.349 3.911 2.452 7.14 2.452 7.168 0 .036-.085.101-.179.147-.104.055-2.32 2.454-4.923 5.35-2.604 2.897-4.877 5.415-5.056 5.618-.245.258-.35.323-.406.24-.047-.074-3.084-.71-7.659-1.615l-7.574-1.494.02-.221c.018-.12-1.076-3.395-2.406-7.278-2.113-6.125-2.415-7.066-2.283-7.122.085-.027 2.443-2.592 5.226-5.682 5.055-5.599 5.074-5.617 5.32-5.507.141.065 3.593.775 7.687 1.578M22.175.129c-.028.074-.34 2.63-.679 5.692-.5 4.353-.66 5.571-.773 5.626-.076.047-4.707 1.098-10.281 2.343C4.867 15.036.245 16.087.17 16.124c-.075.046-.15.12-.17.175-.019.056 2.085 1.624 4.688 3.497 2.594 1.863 4.707 3.44 4.688 3.496-.16.396-6.197 19.721-6.197 19.823 0 .074.056.147.123.166.056.027 2.508-.978 5.442-2.242 2.933-1.254 5.357-2.26 5.386-2.223 1.264 1.365 14.299 15.045 14.403 15.119.094.065.207.083.264.046.056-.037.368-2.398.735-5.691.35-3.1.67-5.655.698-5.683.038-.027.66-.184 1.387-.34 3.207-.711 19.072-4.272 19.223-4.318a.241.241 0 0 0 .16-.212c0-.102-1.585-1.291-4.546-3.432-2.5-1.789-4.603-3.311-4.679-3.366-.103-.074.387-1.753 2.934-9.87 1.688-5.37 3.093-9.88 3.131-10.009.038-.166.02-.258-.075-.295-.076-.028-2.5.968-5.386 2.204-2.886 1.237-5.291 2.26-5.33 2.279-.046.01-3.065-3.118-6.705-6.946C22.514.074 22.439 0 22.317 0c-.047 0-.113.055-.142.13"></path></svg></g><line x1="45.987444444444435" y1="37" x2="73.50855555555555" y2="37" stroke="#ff7c7c" stroke-linecap="round"></line><path fill="#ff7c7c" fill-rule="nonzero" d="M9.72 1.75L9.72 1.75Q10.34 1.75 11.00 2.54Q11.66 3.34 11.66 3.85Q11.66 4.37 11.48 4.37Q11.30 4.37 10.80 4.19Q10.30 4.01 9.89 4.01L9.89 4.01Q8.95 4.01 7.62 4.97Q6.29 5.93 5.10 7.34Q3.91 8.76 3.07 10.57Q2.23 12.38 2.23 13.70Q2.23 15.02 2.92 15.64Q3.60 16.25 4.70 16.25Q5.81 16.25 6.98 15.92Q8.16 15.60 8.90 15.19L8.90 15.19Q10.82 14.16 11.02 14.16L11.02 14.16Q11.42 14.16 11.42 14.70Q11.42 15.24 10.32 16.14Q9.22 17.04 7.58 17.76Q5.95 18.48 4.66 18.48L4.66 18.48Q2.98 18.48 1.49 17.03Q0 15.58 0 13.82L0 13.82Q0 11.57 1.48 8.72Q2.95 5.88 5.27 3.82Q7.58 1.75 9.72 1.75ZM22.94 6.72Q23.33 6.72 23.77 7.28Q24.22 7.85 24.22 8.54L24.22 8.54Q24.22 9.02 23.23 11.81Q22.25 14.59 21.90 15.59Q21.55 16.58 20.96 18.23Q20.38 19.87 19.82 21.43L19.82 21.43Q18.62 24.86 16.22 24.86L16.22 24.86Q14.86 24.86 13.61 24.04Q12.36 23.21 12.36 22.32L12.36 22.32Q12.36 21.98 12.66 21.58Q12.96 21.17 13.18 21.17Q13.39 21.17 13.87 21.70L13.87 21.70Q15.26 23.28 16.25 23.28L16.25 23.28Q16.99 23.28 17.59 21.97Q18.19 20.66 18.73 19.02Q19.27 17.38 19.33 17.21Q19.39 17.04 19.48 16.78Q19.56 16.51 19.63 16.30L19.63 16.30Q17.93 18.62 16.27 18.62L16.27 18.62Q15.26 18.62 14.41 17.69Q13.56 16.75 13.56 15.48Q13.56 14.21 14.18 12.05Q14.81 9.89 15.65 8.30Q16.49 6.72 17.02 6.72L17.02 6.72Q17.45 6.72 17.82 7.12Q18.19 7.51 18.19 7.92Q18.19 8.33 17.57 9.62L17.57 9.62Q15.62 13.61 15.62 15.82L15.62 15.82Q15.62 16.20 15.86 16.45Q16.10 16.70 16.44 16.70L16.44 16.70Q17.30 16.70 18.50 15.17Q19.70 13.63 20.71 11.52L20.71 11.52Q21.55 9.74 22.46 6.98L22.46 6.98Q22.56 6.72 22.94 6.72ZM29.54 2.02L29.54 2.02Q29.54 6.53 27.67 13.73L27.67 13.73Q26.47 18.62 25.99 18.62L25.99 18.62Q25.66 18.62 25.21 18.10Q24.77 17.57 24.77 17.28Q24.77 16.99 25.46 14.30Q26.16 11.62 26.86 7.69Q27.55 3.77 27.55 0.62L27.55 0.62Q27.55 0.29 27.65 0.14Q27.74 0 28.06 0Q28.37 0 28.96 0.68Q29.54 1.37 29.54 2.02ZM34.57 18.62Q33.17 18.62 31.94 17.53Q30.72 16.44 30.72 14.94Q30.72 13.44 31.73 11.47Q32.74 9.50 34.33 8.11Q35.93 6.72 37.44 6.72L37.44 6.72Q38.42 6.72 39.17 7.61Q39.91 8.50 39.91 9.17L39.91 9.17Q39.91 9.36 39.79 9.49Q39.67 9.62 39.44 9.62Q39.22 9.62 38.64 9.19Q38.06 8.76 37.61 8.76L37.61 8.76Q36.31 8.76 34.58 11.04Q32.86 13.32 32.86 15.02L32.86 15.02Q32.86 15.77 33.32 16.20Q33.79 16.63 34.84 16.63Q35.88 16.63 36.76 16.38Q37.63 16.13 38.11 15.88Q38.59 15.62 38.86 15.62L38.86 15.62Q39.31 15.62 39.31 16.08L39.31 16.08Q39.31 16.78 37.64 17.70Q35.98 18.62 34.57 18.62ZM46.10 2.02L46.10 2.02Q46.10 6.53 44.23 13.73L44.23 13.73Q43.03 18.62 42.55 18.62L42.55 18.62Q42.22 18.62 41.77 18.10Q41.33 17.57 41.33 17.28Q41.33 16.99 42.02 14.30Q42.72 11.62 43.42 7.69Q44.11 3.77 44.11 0.62L44.11 0.62Q44.11 0.29 44.21 0.14Q44.30 0 44.62 0Q44.93 0 45.52 0.68Q46.10 1.37 46.10 2.02ZM56.83 10.69Q56.83 11.98 55.45 12.78Q54.07 13.58 52.33 13.58Q50.59 13.58 49.18 13.20L49.18 13.20Q48.84 14.26 48.84 15.08Q48.84 15.91 49.36 16.37Q49.87 16.82 51.06 16.82Q52.25 16.82 53.51 16.40Q54.77 15.98 54.89 15.98L54.89 15.98Q55.51 15.98 55.51 16.46L55.51 16.46Q55.51 17.11 54.05 17.87Q52.58 18.62 51.19 18.62L51.19 18.62Q49.32 18.62 48.14 17.51Q46.97 16.39 46.97 14.69Q46.97 12.98 47.88 11.12Q48.79 9.26 50.23 7.99Q51.67 6.72 53.09 6.72Q54.50 6.72 55.67 8.06Q56.83 9.41 56.83 10.69ZM53.21 8.62L53.21 8.62Q52.32 8.62 51.36 9.54Q50.40 10.46 49.73 11.83L49.73 11.83Q50.69 12.05 51.91 12.05Q53.14 12.05 54.05 11.65Q54.96 11.26 54.96 10.61Q54.96 9.96 54.37 9.29Q53.78 8.62 53.21 8.62ZM78.17 13.85L78.17 13.85Q78.17 15.82 76.39 17.15Q74.62 18.48 72.32 18.48Q70.03 18.48 68.54 17.29Q67.06 16.10 67.06 15.05L67.06 15.05Q67.06 14.33 67.49 14.33L67.49 14.33Q67.87 14.33 69 15.48L69 15.48Q69.43 15.89 70.16 16.25Q70.90 16.61 71.71 16.61L71.71 16.61Q73.39 16.61 74.70 15.74Q76.01 14.88 76.01 13.87L76.01 13.87Q76.01 13.22 75.14 12.22Q74.28 11.21 73.24 10.31Q72.19 9.41 71.33 8.38Q70.46 7.34 70.46 6.74Q70.46 6.14 70.70 5.47Q70.94 4.80 71.23 4.49L71.23 4.49Q72.17 3.46 74.15 2.59Q76.13 1.73 77.47 1.73L77.47 1.73Q78.17 1.73 78.65 2.18Q79.13 2.64 79.13 3.14L79.13 3.14Q79.13 3.38 78.62 3.53Q78.12 3.67 77.10 3.90Q76.08 4.13 75.29 4.44L75.29 4.44Q72.53 5.50 72.53 6.48L72.53 6.48Q72.53 7.01 75.34 9.43L75.34 9.43Q76.42 10.37 77.29 11.60Q78.17 12.84 78.17 13.85ZM84.30 18.62Q82.90 18.62 81.67 17.53Q80.45 16.44 80.45 14.94Q80.45 13.44 81.46 11.47Q82.46 9.50 84.06 8.11Q85.66 6.72 87.17 6.72L87.17 6.72Q88.15 6.72 88.90 7.61Q89.64 8.50 89.64 9.17L89.64 9.17Q89.64 9.36 89.52 9.49Q89.40 9.62 89.17 9.62Q88.94 9.62 88.37 9.19Q87.79 8.76 87.34 8.76L87.34 8.76Q86.04 8.76 84.31 11.04Q82.58 13.32 82.58 15.02L82.58 15.02Q82.58 15.77 83.05 16.20Q83.52 16.63 84.56 16.63Q85.61 16.63 86.48 16.38Q87.36 16.13 87.84 15.88Q88.32 15.62 88.58 15.62L88.58 15.62Q89.04 15.62 89.04 16.08L89.04 16.08Q89.04 16.78 87.37 17.70Q85.70 18.62 84.30 18.62ZM98.35 10.80L98.35 10.80Q98.35 9.98 98.09 9.25Q97.82 8.52 97.32 8.18L97.32 8.18Q95.66 8.64 94.48 10.74Q93.29 12.84 93.29 14.69Q93.29 16.54 94.20 16.99L94.20 16.99Q95.93 16.66 97.14 14.63Q98.35 12.60 98.35 10.80ZM92.05 11.02Q92.88 9.14 94.24 7.93Q95.59 6.72 97.02 6.72Q98.45 6.72 99.41 7.93Q100.37 9.14 100.37 10.88Q100.37 12.62 99.53 14.44Q98.69 16.25 97.21 17.44Q95.74 18.62 94.08 18.62L94.08 18.62Q92.86 18.62 92.04 17.50Q91.22 16.37 91.22 14.63Q91.22 12.89 92.05 11.02ZM103.42 9.65L103.42 9.65L103.34 7.85Q103.34 6.72 103.87 6.72L103.87 6.72Q104.33 6.72 104.75 7.31Q105.17 7.90 105.17 8.70Q105.17 9.50 105.12 9.91L105.12 9.91Q107.21 6.74 109.08 6.74L109.08 6.74Q110.26 6.74 110.26 7.32L110.26 7.32Q110.26 7.61 109.99 7.85Q109.73 8.09 109.15 8.40L109.15 8.40Q107.88 8.95 107.00 10.09Q106.13 11.23 105.58 12.67Q105.02 14.11 104.70 15.10Q104.38 16.08 104.21 16.63Q104.04 17.18 103.82 17.71L103.82 17.71Q103.44 18.67 102.94 18.67L102.94 18.67Q102.53 18.67 102.28 18.20Q102.02 17.74 102.02 17.29Q102.02 16.85 102.43 15.53L102.43 15.53Q103.42 12.50 103.42 9.65ZM119.50 10.69Q119.50 11.98 118.12 12.78Q116.74 13.58 115.00 13.58Q113.26 13.58 111.84 13.20L111.84 13.20Q111.50 14.26 111.50 15.08Q111.50 15.91 112.02 16.37Q112.54 16.82 113.72 16.82Q114.91 16.82 116.17 16.40Q117.43 15.98 117.55 15.98L117.55 15.98Q118.18 15.98 118.18 16.46L118.18 16.46Q118.18 17.11 116.71 17.87Q115.25 18.62 113.86 18.62L113.86 18.62Q111.98 18.62 110.81 17.51Q109.63 16.39 109.63 14.69Q109.63 12.98 110.54 11.12Q111.46 9.26 112.90 7.99Q114.34 6.72 115.75 6.72Q117.17 6.72 118.33 8.06Q119.50 9.41 119.50 10.69ZM115.87 8.62L115.87 8.62Q114.98 8.62 114.02 9.54Q113.06 10.46 112.39 11.83L112.39 11.83Q113.35 12.05 114.58 12.05Q115.80 12.05 116.71 11.65Q117.62 11.26 117.62 10.61Q117.62 9.96 117.04 9.29Q116.45 8.62 115.87 8.62Z" transform="translate(0, 43)"></path></svg>